<svg width="105" height="30" viewBox="0 0 105 30" fill="none" xmlns="http://www.w3.org/2000/svg">
<path d="M10.52 23.404L12.888 23.18C12.8453 24.0333 12.9947 24.7053 13.336 25.196C13.6773 25.708 14.168 26.0707 14.808 26.284C15.4693 26.5187 16.2373 26.636 17.112 26.636C17.8587 26.636 18.52 26.5827 19.096 26.476C19.6933 26.3693 20.248 26.2307 20.76 26.06C21.272 25.9107 21.752 25.772 22.2 25.644V29.068C21.5387 29.26 20.8133 29.42 20.024 29.548C19.2347 29.676 18.424 29.74 17.592 29.74C16.1413 29.74 14.872 29.5267 13.784 29.1C12.696 28.6733 11.864 27.9907 11.288 27.052C10.712 26.1347 10.456 24.9187 10.52 23.404ZM11.768 23.82C10.1467 23.82 8.64267 23.5427 7.256 22.988C5.86933 22.412 4.65333 21.612 3.608 20.588C2.584 19.564 1.784 18.3373 1.208 16.908C0.653333 15.4573 0.376 13.868 0.376 12.14C0.376 10.412 0.653333 8.83333 1.208 7.404C1.784 5.97467 2.584 4.748 3.608 3.724C4.65333 2.67867 5.86933 1.87867 7.256 1.324C8.64267 0.747999 10.1467 0.459999 11.768 0.459999C13.368 0.459999 14.8613 0.747999 16.248 1.324C17.6347 1.87867 18.84 2.67867 19.864 3.724C20.9093 4.748 21.7093 5.97467 22.264 7.404C22.84 8.83333 23.128 10.412 23.128 12.14C23.128 13.868 22.84 15.4573 22.264 16.908C21.7093 18.3373 20.9093 19.564 19.864 20.588C18.84 21.612 17.6347 22.412 16.248 22.988C14.8613 23.5427 13.368 23.82 11.768 23.82ZM11.768 21.74C12.792 21.74 13.7413 21.5267 14.616 21.1C15.4907 20.652 16.2373 20.012 16.856 19.18C17.496 18.348 17.9867 17.3453 18.328 16.172C18.6693 14.9773 18.84 13.6333 18.84 12.14C18.84 10.6467 18.6693 9.31333 18.328 8.14C17.9867 6.94533 17.496 5.932 16.856 5.1C16.2373 4.268 15.4907 3.63867 14.616 3.212C13.7413 2.764 12.792 2.54 11.768 2.54C10.7227 2.54 9.76267 2.764 8.888 3.212C8.03467 3.63867 7.288 4.268 6.648 5.1C6.008 5.932 5.51733 6.94533 5.176 8.14C4.83467 9.31333 4.664 10.6467 4.664 12.14C4.664 13.6333 4.83467 14.9773 5.176 16.172C5.51733 17.3453 6.008 18.348 6.648 19.18C7.288 20.012 8.03467 20.652 8.888 21.1C9.76267 21.5267 10.7227 21.74 11.768 21.74ZM36.5655 13.644V15.308C35.6055 15.4147 34.7522 15.5533 34.0055 15.724C33.2588 15.8733 32.6082 16.0653 32.0535 16.3C31.4988 16.5347 31.0508 16.8013 30.7095 17.1C30.3682 17.3987 30.1015 17.74 29.9095 18.124C29.7388 18.508 29.6535 18.9347 29.6535 19.404C29.6535 19.916 29.7602 20.364 29.9735 20.748C30.1868 21.1107 30.4855 21.388 30.8695 21.58C31.2535 21.772 31.7015 21.868 32.2135 21.868C32.8748 21.868 33.4615 21.708 33.9735 21.388C34.5068 21.068 34.9762 20.6093 35.3815 20.012C35.7868 19.4147 36.1495 18.7107 36.4695 17.9L36.5335 20.012C36.2135 20.8013 35.7868 21.484 35.2535 22.06C34.7415 22.6147 34.1335 23.052 33.4295 23.372C32.7255 23.6707 31.9148 23.82 30.9975 23.82C30.0375 23.82 29.1628 23.6493 28.3735 23.308C27.6055 22.9667 26.9975 22.476 26.5495 21.836C26.1015 21.1747 25.8775 20.396 25.8775 19.5C25.8775 18.6253 26.1015 17.868 26.5495 17.228C26.9975 16.5667 27.6695 16.012 28.5655 15.564C29.4828 15.0947 30.6028 14.7107 31.9255 14.412C33.2482 14.092 34.7948 13.836 36.5655 13.644ZM36.0855 23.5V20.172L35.7335 20.14V12.044C35.7335 11.2547 35.6162 10.6253 35.3815 10.156C35.1682 9.66533 34.8482 9.324 34.4215 9.132C33.9948 8.91867 33.4615 8.812 32.8215 8.812C31.8615 8.812 31.0722 9.01467 30.4535 9.42C29.8348 9.804 29.3442 10.2733 28.9815 10.828C28.8962 10.5933 28.8748 10.3693 28.9175 10.156C28.9602 9.94267 29.0348 9.75067 29.1415 9.58C29.2695 9.388 29.4295 9.23867 29.6215 9.132C29.8135 9.004 30.0268 8.89733 30.2615 8.812V12.172H26.9015V8.844C27.2215 8.588 27.6695 8.31067 28.2455 8.012C28.8215 7.692 29.5255 7.42533 30.3575 7.212C31.1895 6.97733 32.1282 6.86 33.1735 6.86C34.0482 6.86 34.8588 6.956 35.6055 7.148C36.3735 7.31867 37.0455 7.61733 37.6215 8.044C38.2188 8.44933 38.6775 8.99333 38.9975 9.676C39.3388 10.3373 39.5095 11.1587 39.5095 12.14V20.812C39.5095 21.068 39.6055 21.2813 39.7975 21.452C40.0108 21.6013 40.2775 21.708 40.5975 21.772C40.9388 21.836 41.3335 21.8787 41.7815 21.9H41.8455V23.5H36.0855ZM42.1928 9.1V7.34H42.3208C42.9181 7.34 43.4194 7.29733 43.8248 7.212C44.2514 7.12667 44.5714 6.96667 44.7848 6.732C45.0194 6.49733 45.1368 6.16667 45.1368 5.74L47.5368 7.18H53.2968V9.1H42.1928ZM48.7208 17.996C48.7208 18.892 48.8274 19.6173 49.0408 20.172C49.2754 20.7053 49.5954 21.1 50.0008 21.356C50.4061 21.5907 50.8861 21.708 51.4408 21.708C51.8888 21.708 52.3048 21.6653 52.6888 21.58C53.0728 21.4947 53.3821 21.4093 53.6168 21.324V23.308C53.4248 23.3933 53.1794 23.468 52.8808 23.532C52.6034 23.6173 52.2834 23.6813 51.9208 23.724C51.5794 23.788 51.1954 23.82 50.7688 23.82C49.7234 23.82 48.7528 23.6493 47.8568 23.308C46.9608 22.9667 46.2354 22.3693 45.6808 21.516C45.1474 20.6627 44.8808 19.5 44.8808 18.028V7.66L45.1368 7.436L45.1688 2.732H48.7208V17.996ZM72.531 15.34C72.531 17.004 72.1577 18.476 71.411 19.756C70.6857 21.036 69.6723 22.0387 68.371 22.764C67.0697 23.468 65.5657 23.82 63.859 23.82C62.1523 23.82 60.6377 23.468 59.315 22.764C58.0137 22.0387 57.0003 21.036 56.275 19.756C55.5497 18.476 55.187 17.004 55.187 15.34C55.187 14.1027 55.3897 12.9613 55.795 11.916C56.2217 10.8707 56.819 9.97467 57.587 9.228C58.3763 8.48133 59.2937 7.90533 60.339 7.5C61.4057 7.07333 62.579 6.86 63.859 6.86C65.139 6.86 66.3017 7.07333 67.347 7.5C68.4137 7.90533 69.331 8.48133 70.099 9.228C70.8883 9.97467 71.4857 10.8707 71.891 11.916C72.3177 12.9613 72.531 14.1027 72.531 15.34ZM59.187 15.34C59.187 16.684 59.3683 17.8467 59.731 18.828C60.115 19.8093 60.659 20.5667 61.363 21.1C62.067 21.612 62.899 21.868 63.859 21.868C64.8403 21.868 65.6723 21.612 66.355 21.1C67.059 20.5667 67.5923 19.8093 67.955 18.828C68.339 17.8467 68.531 16.684 68.531 15.34C68.531 13.9747 68.339 12.812 67.955 11.852C67.5923 10.8707 67.059 10.124 66.355 9.612C65.6723 9.1 64.8403 8.844 63.859 8.844C62.899 8.844 62.067 9.1 61.363 9.612C60.659 10.124 60.115 10.8707 59.731 11.852C59.3683 12.812 59.187 13.9747 59.187 15.34ZM74.0678 9.1V7.34H74.1958C74.7931 7.34 75.2944 7.29733 75.6998 7.212C76.1264 7.12667 76.4464 6.96667 76.6598 6.732C76.8944 6.49733 77.0118 6.16667 77.0118 5.74L79.4118 7.18H85.1718V9.1H74.0678ZM80.5958 17.996C80.5958 18.892 80.7024 19.6173 80.9158 20.172C81.1504 20.7053 81.4704 21.1 81.8758 21.356C82.2811 21.5907 82.7611 21.708 83.3158 21.708C83.7638 21.708 84.1798 21.6653 84.5638 21.58C84.9478 21.4947 85.2571 21.4093 85.4918 21.324V23.308C85.2998 23.3933 85.0544 23.468 84.7558 23.532C84.4784 23.6173 84.1584 23.6813 83.7958 23.724C83.4544 23.788 83.0704 23.82 82.6438 23.82C81.5984 23.82 80.6278 23.6493 79.7318 23.308C78.8358 22.9667 78.1104 22.3693 77.5558 21.516C77.0224 20.6627 76.7558 19.5 76.7558 18.028V7.66L77.0118 7.436L77.0438 2.732H80.5958V17.996ZM104.406 15.34C104.406 17.004 104.033 18.476 103.286 19.756C102.561 21.036 101.547 22.0387 100.246 22.764C98.9447 23.468 97.4407 23.82 95.734 23.82C94.0273 23.82 92.5127 23.468 91.19 22.764C89.8887 22.0387 88.8753 21.036 88.15 19.756C87.4247 18.476 87.062 17.004 87.062 15.34C87.062 14.1027 87.2647 12.9613 87.67 11.916C88.0967 10.8707 88.694 9.97467 89.462 9.228C90.2513 8.48133 91.1687 7.90533 92.214 7.5C93.2807 7.07333 94.454 6.86 95.734 6.86C97.014 6.86 98.1767 7.07333 99.222 7.5C100.289 7.90533 101.206 8.48133 101.974 9.228C102.763 9.97467 103.361 10.8707 103.766 11.916C104.193 12.9613 104.406 14.1027 104.406 15.34ZM91.062 15.34C91.062 16.684 91.2433 17.8467 91.606 18.828C91.99 19.8093 92.534 20.5667 93.238 21.1C93.942 21.612 94.774 21.868 95.734 21.868C96.7153 21.868 97.5473 21.612 98.23 21.1C98.934 20.5667 99.4673 19.8093 99.83 18.828C100.214 17.8467 100.406 16.684 100.406 15.34C100.406 13.9747 100.214 12.812 99.83 11.852C99.4673 10.8707 98.934 10.124 98.23 9.612C97.5473 9.1 96.7153 8.844 95.734 8.844C94.774 8.844 93.942 9.1 93.238 9.612C92.534 10.124 91.99 10.8707 91.606 11.852C91.2433 12.812 91.062 13.9747 91.062 15.34Z" fill="#00696E"/>
</svg>
